<?xml version="1.0" encoding="UTF-8" standalone="no"?>
<svg
   xmlns:dc="http://purl.org/dc/elements/1.1/"
   xmlns:cc="http://creativecommons.org/ns#"
   xmlns:rdf="http://www.w3.org/1999/02/22-rdf-syntax-ns#"
   xmlns:svg="http://www.w3.org/2000/svg"
   xmlns="http://www.w3.org/2000/svg"
   xmlns:sodipodi="http://sodipodi.sourceforge.net/DTD/sodipodi-0.dtd"
   xmlns:inkscape="http://www.inkscape.org/namespaces/inkscape"
   version="1.1"
   id="Layer_1"
   x="0px"
   y="0px"
   viewBox="0 0 720 720"
   enable-background="new 0 0 960 560"
   xml:space="preserve"
   width="720"
   height="720"
   inkscape:version="0.91 r13725"
   sodipodi:docname="splash.svg"
   inkscape:export-filename="/Users/ktornwall/gaslight/gaslight/bus-detective-mobile-client/splash.png"
   inkscape:export-xdpi="128"
   inkscape:export-ydpi="128"><sodipodi:namedview
     pagecolor="#ffffff"
     bordercolor="#666666"
     borderopacity="1"
     objecttolerance="10"
     gridtolerance="10"
     guidetolerance="10"
     inkscape:pageopacity="1"
     inkscape:pageshadow="2"
     inkscape:window-width="1562"
     inkscape:window-height="986"
     id="namedview3380"
     showgrid="false"
     inkscape:zoom="0.70710678"
     inkscape:cx="358.89829"
     inkscape:cy="278.20259"
     inkscape:window-x="0"
     inkscape:window-y="0"
     inkscape:window-maximized="0"
     inkscape:current-layer="Layer_1"
     showguides="true"
     inkscape:guide-bbox="true"><sodipodi:guide
       position="360,750.67793"
       orientation="1,0"
       id="guide3381"
       inkscape:label=""
       inkscape:color="rgb(0,0,255)" /></sodipodi:namedview><metadata
     id="metadata3423"><rdf:RDF><cc:Work
         rdf:about=""><dc:format>image/svg+xml</dc:format><dc:type
           rdf:resource="http://purl.org/dc/dcmitype/StillImage" /><dc:title /></cc:Work></rdf:RDF></metadata><defs
     id="defs3421" /><g
     id="g3337"
     transform="matrix(1.1212956,0,0,1.1212956,-164.091,16.728341)"><g
       id="g3339"><path
         d="m 598.9,462.1 -50.6,0 c -3.4,0 -6.2,-2.8 -6.2,-6.2 l 0,-7.7 c 0,-3.4 2.8,-6.2 6.2,-6.2 l 50.6,0 c 3.4,0 6.2,2.8 6.2,6.2 l 0,7.7 c 0,3.4 -2.8,6.2 -6.2,6.2 z"
         id="path3341"
         style="fill:#e5e5e5"
         inkscape:connector-curvature="0" /><path
         d="m 385.5,462.1 -50.6,0 c -3.4,0 -6.2,-2.8 -6.2,-6.2 l 0,-7.7 c 0,-3.4 2.8,-6.2 6.2,-6.2 l 50.6,0 c 3.4,0 6.2,2.8 6.2,6.2 l 0,7.7 c 0,3.4 -2.7,6.2 -6.2,6.2 z"
         id="path3343"
         style="fill:#e5e5e5"
         inkscape:connector-curvature="0" /><rect
         x="296.60001"
         y="62.200001"
         width="340.10001"
         height="329.29999"
         id="rect3345"
         style="fill:#4aa1ef" /><rect
         x="296.39999"
         y="36.5"
         width="345.29999"
         height="28.700001"
         id="rect3347"
         style="fill:#84c9f6" /><rect
         x="320.70001"
         y="290.5"
         width="293.79999"
         height="17.799999"
         id="rect3349"
         style="fill:#84c9f6" /><path
         d="m 636,404.8 -337.1,0 c -6.1,0 -11,-4.9 -11,-11 l 0,-356.3 c 0,-6.1 4.9,-11 11,-11 l 337.1,0 c 6.1,0 11,4.9 11,11 l 0,356.3 c 0.2,6.1 -4.9,11 -11,11 z m -331,-16.9 325.4,0 0,-344.5 -325.4,0 0,344.5 z"
         id="path3351"
         style="fill:#2b5c86"
         inkscape:connector-curvature="0" /><rect
         x="320.70001"
         y="82"
         width="293.79999"
         height="208.39999"
         id="rect3353"
         style="fill:#e5e5e5" /><rect
         x="337.20001"
         y="98.099998"
         width="260.70001"
         height="175.7"
         id="rect3355"
         style="fill:#f1f1f1" /><path
         d="m 597.6,98.2 c 0,65.5 -58.3,119.5 -130,119.5 -71.7,0 -130,-54 -130,-119.5 l 260,0 z"
         id="path3357"
         style="fill:#ffffff"
         inkscape:connector-curvature="0" /><rect
         x="338.5"
         y="396.39999"
         width="44.400002"
         height="54.400002"
         id="rect3359"
         style="fill:#2b5c86" /><g
         id="g3361"><circle
           cx="667"
           cy="388.89999"
           r="46.200001"
           id="circle3363"
           style="fill:#ffffff" /><rect
           x="660.70001"
           y="338.70001"
           transform="matrix(-0.5803,-0.8144,0.8144,-0.5803,740.2878,1160.9851)"
           enable-background="new    "
           width="17.200001"
           height="102"
           id="rect3365"
           style="opacity:0.5;fill:#f1f1f1" /><rect
           x="648.90002"
           y="322.60001"
           transform="matrix(-0.5759,-0.8175,0.8175,-0.5759,729.5825,1114.1923)"
           enable-background="new    "
           width="9.8000002"
           height="90.5"
           id="rect3367"
           style="opacity:0.5;fill:#f1f1f1" /><path
           d="m 665.8,328.5 c -31.8,0 -59.4,27.7 -59.4,59.4 0,31.7 27.7,59.4 59.4,59.4 31.7,0 59.4,-27.7 59.4,-59.4 0,-31.7 -27.6,-59.4 -59.4,-59.4 z m 0,104.6 c -24.6,0 -44.5,-20 -44.5,-44.5 0,-24.5 20,-44.5 44.5,-44.5 24.5,0 44.5,20 44.5,44.5 0,24.5 -19.9,44.5 -44.5,44.5 z"
           id="path3369"
           style="fill:#c7d034"
           inkscape:connector-curvature="0" /><polygon
           points="584.6,440.1 619.8,415.3 628.5,427.4 595.1,450.3 "
           id="polygon3371"
           style="fill:#c7d034" /></g><rect
         x="551.40002"
         y="396.39999"
         width="44.400002"
         height="54.400002"
         id="rect3373"
         style="fill:#2b5c86" /><circle
         cx="358.70001"
         cy="348.39999"
         r="20.5"
         id="circle3375"
         style="fill:#f1f1f1" /><circle
         cx="357.79999"
         cy="359.10001"
         r="5.9000001"
         id="circle3377"
         style="fill:#2b5c86" /><circle
         cx="574.5"
         cy="348.39999"
         r="20.5"
         id="circle3379"
         style="fill:#f1f1f1" /><circle
         cx="575.5"
         cy="358.39999"
         r="5.9000001"
         id="circle3381"
         style="fill:#2b5c86" /><g
         id="g3383"><path
           d="m 433.8,352 c 18.5,0 17.7,-19 33.7,-19 2.5,0 4.1,2 4.3,2 0.2,0 0,7 0,7 0,0 -4.9,17 -22.9,21.6 -31.9,4.6 -38.3,-21.9 -34.4,-22.3 3.3,-0.2 3.9,10.7 19.3,10.7 z"
           id="path3385"
           style="fill:#c7d034"
           inkscape:connector-curvature="0" /></g><g
         id="g3387"><path
           d="m 501,352 c -18.5,0 -17.7,-19 -33.7,-19 -2.5,0 -4.1,2 -4.3,2 -0.2,0 0,7 0,7 0,0 4.9,17 22.9,21.6 31.9,4.6 38.3,-21.9 34.4,-22.3 -3.1,-0.2 -3.9,10.7 -19.3,10.7 z"
           id="path3389"
           style="fill:#c7d034"
           inkscape:connector-curvature="0" /></g></g><g
       enable-background="new    "
       id="g3391"><path
         d="m 291.4,485.2 17.3,0 c 7.8,0 13.8,2.1 13.8,10.8 0,5 -2.1,7.8 -5.7,9.1 4.1,1.5 6.7,5.2 6.7,10.6 0,8.5 -5,12.6 -13.8,12.6 l -18.4,0 0,-43.1 z m 17.5,17.3 c 4.6,0 7.2,-1.7 7.2,-6 0,-4.1 -2.2,-6 -7.2,-6 l -11.1,0 0,12 11.1,0 z m 1.1,20.4 c 5.2,0 7.2,-3.4 7.2,-7.4 0,-4.4 -2.3,-7.4 -7.2,-7.4 l -12.1,0 0,14.8 12.1,0 z"
         id="path3393"
         style="fill:#2b5c86"
         inkscape:connector-curvature="0" /><path
         d="m 348.8,525 c -1.9,2 -4.7,3.6 -9.4,3.6 -6.8,0 -9,-3.8 -9,-10.3 l 0,-20.2 6.1,0 0,19.3 c 0,3 0.6,5.8 5.1,5.8 5,0 7.1,-2.2 7.3,-7.8 l 0,-17.3 6.1,0 0,30.2 -6.1,0 0,-3.3 z"
         id="path3395"
         style="fill:#2b5c86"
         inkscape:connector-curvature="0" /></g><g
       enable-background="new    "
       id="g3397"><path
         d="M 362.8,520.6 369,519 c 0.9,3.3 2.4,4.6 7,4.6 3.2,0 5.7,-0.8 5.7,-3.6 0,-2.8 -1.7,-3.4 -6.5,-4.6 -6.5,-1.4 -10.9,-3 -10.9,-9 0,-4.5 3.4,-8.7 11.6,-8.7 6.5,0 10.5,2.4 11.8,7 l -6.1,1.9 c -0.5,-2.5 -2.1,-3.9 -5.7,-3.9 -3.8,0 -5.4,1.3 -5.4,3.2 0,2.4 1.1,3 6.4,4.3 5.9,1.4 10.9,2.9 10.9,9.3 0,6.6 -5.7,9.1 -11.8,9.1 -7,0 -11.4,-2.2 -13.2,-8 z"
         id="path3399"
         style="fill:#2b5c86"
         inkscape:connector-curvature="0" /><path
         d="m 406.9,485.2 13.8,0 c 14.8,0 17.5,9.4 17.5,20.2 l 0,2.7 c 0,11.8 -4.4,20.2 -17.4,20.2 l -13.9,0 0,-43.1 z m 13.9,37.5 c 8.7,0 10.9,-5.5 10.9,-14.7 l 0,-2.6 c 0,-10.3 -2.6,-14.5 -11,-14.5 l -7.4,0 0,31.8 7.5,0 z"
         id="path3401"
         style="fill:#2b5c86"
         inkscape:connector-curvature="0" /><path
         d="m 442.9,514 0,-1.7 c 0,-8.9 3.9,-14.7 13.1,-14.7 9.1,0 12.2,5.2 12.2,13.6 l 0,3.9 -19.3,0 c 0.2,5.2 1.9,8.4 7,8.4 4.5,0 5.8,-1.4 6.4,-4.3 l 5.8,1.1 c -1.1,4.3 -4.5,8.3 -12.1,8.3 -9.7,0 -13.1,-5.8 -13.1,-14.6 z m 6.1,-4.1 13.2,0 c -0.1,-4.6 -1.4,-7 -6.3,-7 -4.9,0 -6.5,2.6 -6.9,7 z"
         id="path3403"
         style="fill:#2b5c86"
         inkscape:connector-curvature="0" /><path
         d="m 471.2,498.1 5.8,0 0,-8.9 6.1,0 0,8.9 7.4,0 0,5.6 -7.4,0 0,13.8 c 0,4.2 0.6,5.4 5,5.4 l 2.4,0 0,5.4 -3.8,0 c -7.7,0 -9.6,-2.7 -9.6,-10 l 0,-14.7 -5.8,0 0,-5.5 z"
         id="path3405"
         style="fill:#2b5c86"
         inkscape:connector-curvature="0" /><path
         d="m 494.4,514 0,-1.7 c 0,-8.9 3.9,-14.7 13.1,-14.7 9.1,0 12.2,5.2 12.2,13.6 l 0,3.9 -19.3,0 c 0.2,5.2 1.9,8.4 7,8.4 4.5,0 5.8,-1.4 6.4,-4.3 l 5.8,1.1 c -1.1,4.3 -4.5,8.3 -12.1,8.3 -9.7,0 -13.1,-5.8 -13.1,-14.6 z m 6.1,-4.1 13.2,0 c -0.1,-4.6 -1.4,-7 -6.3,-7 -4.8,0 -6.5,2.6 -6.9,7 z"
         id="path3407"
         style="fill:#2b5c86"
         inkscape:connector-curvature="0" /><path
         d="m 524,514 0,-1.7 c 0,-9.1 4.1,-14.7 13.1,-14.7 7.2,0 11.1,3.2 12.3,10.7 l -6.3,1 c -0.4,-4.2 -2.2,-6.3 -6.2,-6.3 -5.6,0 -6.9,3.6 -6.9,9.5 l 0,1.2 c 0,5.7 1.7,9.6 6.9,9.6 4.3,0 6,-2.1 6.5,-5.8 l 6.1,0.9 c -1.4,6.7 -5.6,10.3 -12.7,10.3 C 527.5,528.6 524,522.6 524,514 Z"
         id="path3409"
         style="fill:#2b5c86"
         inkscape:connector-curvature="0" /><path
         d="m 552.6,498.1 5.8,0 0,-8.9 6.1,0 0,8.9 7.4,0 0,5.6 -7.4,0 0,13.8 c 0,4.2 0.6,5.4 5,5.4 l 2.4,0 0,5.4 -3.8,0 c -7.7,0 -9.6,-2.7 -9.6,-10 l 0,-14.7 -5.8,0 0,-5.5 z"
         id="path3411"
         style="fill:#2b5c86"
         inkscape:connector-curvature="0" /><path
         d="m 578.1,486.7 6.3,0 0,6.9 -6.3,0 0,-6.9 z m 0.2,11.4 6.1,0 0,30.2 -6.1,0 0,-30.2 z"
         id="path3413"
         style="fill:#2b5c86"
         inkscape:connector-curvature="0" /><path
         d="m 605.4,528.6 -6.3,0 -10,-30.5 6.3,0 2.2,6.9 4.7,15.2 4.7,-15.2 2.2,-6.9 6.2,0 -10,30.5 z"
         id="path3415"
         style="fill:#2b5c86"
         inkscape:connector-curvature="0" /><path
         d="m 617.8,514 0,-1.7 c 0,-8.9 3.9,-14.7 13.1,-14.7 9.1,0 12.2,5.2 12.2,13.6 l 0,3.9 -19.3,0 c 0.2,5.2 1.9,8.4 7,8.4 4.5,0 5.8,-1.4 6.4,-4.3 l 5.8,1.1 c -1.1,4.3 -4.5,8.3 -12.1,8.3 -9.7,0 -13.1,-5.8 -13.1,-14.6 z m 6.1,-4.1 13.2,0 c -0.1,-4.6 -1.4,-7 -6.3,-7 -4.9,0 -6.5,2.6 -6.9,7 z"
         id="path3417"
         style="fill:#2b5c86"
         inkscape:connector-curvature="0" /></g></g></svg>